<svg width="32" height="32" viewBox="0 0 32 32" fill="none" xmlns="http://www.w3.org/2000/svg">
  <!-- Compact backpack with mountain silhouette and motion streak -->
  <rect width="32" height="32" rx="6" fill="#1C1F24"/>
  
  <!-- Motion streaks (energy lines) -->
  <path d="M4 10 L10 10" stroke="#FF7A3D" stroke-width="1.5" stroke-linecap="round"/>
  <path d="M4 14 L12 14" stroke="#FF7A3D" stroke-width="1.5" stroke-linecap="round" opacity="0.7"/>
  
  <!-- Backpack silhouette -->
  <path d="M14 9 L14 7 C14 6.4 14.4 6 15 6 L17 6 C17.6 6 18 6.4 18 7 L18 9" fill="#D8C6A4"/>
  <rect x="12" y="9" width="8" height="12" rx="1.5" fill="#D8C6A4"/>
  <circle cx="16" cy="15" r="1.5" fill="#1C1F24"/>
  <rect x="14" y="19" width="4" height="1" rx="0.5" fill="#1C1F24"/>
  
  <!-- Mountain silhouette inside/behind -->
  <path d="M13 17 L16 12 L19 17 Z" fill="#3E6B57" opacity="0.3"/>
  
  <!-- Small detail lines on pack -->
  <line x1="12" y1="12" x2="20" y2="12" stroke="#1C1F24" stroke-width="0.5" opacity="0.3"/>
  
  <!-- Fast motion accent -->
  <circle cx="26" cy="16" r="2" fill="#FF7A3D" opacity="0.6"/>
  <circle cx="28" cy="16" r="1" fill="#FF7A3D" opacity="0.8"/>
</svg>
